<svg width="42" height="42" viewBox="0 0 42 42" fill="currentColor" xmlns="http://www.w3.org/2000/svg">
<g clip-path="url(#clip0_15_91)">
<path d="M28.0844 6.5625C30.8973 6.5625 33.9704 8.98788 36.7738 12.6562C37.8446 14.0574 38.7719 15.5329 39.3413 16.7208C39.6415 17.3471 39.8387 17.8833 39.9153 18.3298C40.0869 19.3289 39.7077 20.3438 38.4338 20.3438L38.0371 20.3346C37.8412 20.324 37.5837 20.3019 37.0709 20.2566C35.7378 20.139 34.7363 20.1452 33.7081 20.3724L34.0672 21.1433C34.5091 21.0494 34.9676 21 35.4375 21C39.0619 21 42 23.9381 42 27.5625C42 31.1869 39.0619 34.125 35.4375 34.125C31.8131 34.125 28.875 31.1869 28.875 27.5625C28.875 25.3437 29.9762 23.382 31.6618 22.1943L31.279 21.3733C30.7313 21.7905 30.0964 22.4501 29.1851 23.515L28.0248 24.8985L27.4762 25.5431C25.5277 27.7918 24.2402 28.7871 22.5806 28.8694L22.3519 28.875L12.9934 28.8766C12.3848 31.8712 9.73683 34.125 6.5625 34.125C2.93813 34.125 0 31.1869 0 27.5625C0 23.9381 2.93813 21 6.5625 21C9.7373 21 12.3855 23.2544 12.9937 26.2498L14.1566 26.25L14.1562 26.2119C14.0908 25.1199 13.612 23.934 12.4176 22.5841L12.1691 22.3119C12.0121 22.145 11.8539 21.9874 11.6945 21.8387C9.88025 20.1459 8.38871 19.7239 5.62274 19.7035L4.86719 19.7044C2.15393 19.7044 0.124763 15.9549 0.574399 13.9954C0.808993 12.973 1.57332 12.6956 2.56516 12.6897C2.94116 12.6875 3.35135 12.7283 3.90427 12.812L5.41533 13.0559C5.57568 13.0786 5.67304 13.0883 5.74593 13.0901L5.78705 13.0903C8.45469 13.0464 10.5074 13.3971 12.3942 14.0668L12.8469 14.2376C13.3784 14.4447 14.0766 14.7298 14.3121 14.8173L14.4913 14.881C14.5148 14.8912 14.5243 14.898 14.526 14.9034L14.5241 14.9061L14.855 14.6241C16.6903 13.077 17.9186 12.4195 19.2908 12.1384L19.5346 12.0926C21.2971 11.7905 23.0831 11.8399 24.8712 12.1413L25.2223 12.2049L23.5339 9.57615C23.3778 9.32935 23.2646 9.14588 23.1722 8.99004L23.0269 8.73536C22.9857 8.65911 22.9512 8.59031 22.9221 8.52536C22.8584 8.3833 22.8145 8.25676 22.7905 8.08559C22.6987 7.42953 23.0447 6.66493 23.9218 6.57192L24.1043 6.5625H28.0844ZM6.5625 23.625C4.38788 23.625 2.625 25.3879 2.625 27.5625C2.625 29.7371 4.38788 31.5 6.5625 31.5C8.27647 31.5 9.73466 30.4049 10.2755 28.8762L6.5625 28.875C5.83763 28.875 5.25 28.2874 5.25 27.5625C5.25 26.8894 5.75668 26.3346 6.40943 26.2588L6.5625 26.25L10.276 26.2501C9.73549 24.7207 8.27696 23.625 6.5625 23.625ZM35.4375 23.625C35.3673 23.625 35.2975 23.6268 35.2282 23.6305L36.8431 27.0955C37.1495 27.7524 36.8652 28.5333 36.2083 28.8397C35.5513 29.146 34.7704 28.8618 34.4641 28.2048L32.8007 24.6382C32.002 25.3589 31.5 26.4021 31.5 27.5625C31.5 29.7371 33.2629 31.5 35.4375 31.5C37.6121 31.5 39.375 29.7371 39.375 27.5625C39.375 25.3879 37.6121 23.625 35.4375 23.625ZM28.0844 9.1875H26.4022L27.5107 10.9105C28.098 11.8296 28.6465 12.7009 29.2012 13.5994L29.276 13.7281C29.3667 13.8975 29.3672 13.9999 29.3705 14.5631L29.2125 14.881C28.9875 15.3214 28.9216 15.3515 28.5268 15.532L28.097 15.607C28.036 15.6147 27.9993 15.6153 27.963 15.6111L27.7459 15.5719L27.4194 15.4786L27.2007 15.4097C26.7165 15.2575 26.3218 15.1431 25.8481 15.0256C23.8469 14.5288 21.8601 14.3573 19.9781 14.6799C18.9408 14.8577 18.04 15.3346 16.2431 16.8908C16.1683 16.9556 16.0916 17.0157 16.0128 17.0712C15.2632 17.5981 14.482 17.6318 13.5679 17.3375L13.3108 17.2439C12.8065 17.0512 11.8486 16.6586 11.5161 16.5406C10.0423 16.0175 8.44498 15.7237 6.36147 15.712L5.66636 15.7151C5.45392 15.7112 5.24869 15.689 4.8445 15.6256L3.46915 15.4012C3.42191 15.3942 3.37629 15.3876 3.33223 15.3815L3.38855 15.5055C3.73865 16.2336 4.3703 17.0794 4.86719 17.0794L5.22445 17.0781C8.84751 17.0601 10.9863 17.5877 13.4853 19.9194C13.6865 20.1071 13.885 20.305 14.0809 20.5131C15.8979 22.4441 16.6688 24.2972 16.7761 26.0435L16.7843 26.25H22.3519C23.1211 26.25 24.1083 25.4522 25.7804 23.4878L27.0026 22.0285C28.8054 19.8975 29.746 19.0266 31.0746 18.4752C32.9721 17.6878 34.4617 17.4807 36.3818 17.5769L36.8484 17.6046L36.8179 17.5418C36.3749 16.6828 35.7242 15.6497 34.9739 14.631L34.6881 14.2501C32.4359 11.303 30 9.33726 28.2797 9.19569L28.0844 9.1875ZM24.9375 17.0625C25.6624 17.0625 26.25 17.6501 26.25 18.375C26.25 19.0999 25.6624 19.6875 24.9375 19.6875H19.6875C18.9626 19.6875 18.375 19.0999 18.375 18.375C18.375 17.6501 18.9626 17.0625 19.6875 17.0625H24.9375Z" fill="#2C2C2E"/>
</g>
<defs>
<clipPath id="clip0_15_91">
<rect width="42" height="42" fill="currentColor"/>
</clipPath>
</defs>
</svg>
